/* XPM */
static char *a126a77d6c4f42bcb43a8fad94796053HNs0QsrHIQ5P209n[] = {
/* columns rows colors chars-per-pixel */
"32 32 218 2 ",
"   c None",
".  c #643704",
"X  c #653A05",
"o  c #764603",
"O  c #7A4B03",
"+  c #754B07",
"@  c #7B500A",
"#  c #8A5901",
"$  c #875608",
"%  c #955F04",
"&  c #946101",
"*  c #9D6601",
"=  c #946914",
"-  c #A46D03",
";  c #B96E00",
":  c #AE7301",
">  c #A7760E",
",  c #B37602",
"<  c #BA7704",
"1  c #BE7A02",
"2  c #B7790B",
"3  c #A27214",
"4  c #B17E18",
"5  c #C36500",
"6  c #C57C00",
"7  c #CB7A00",
"8  c #BE890B",
"9  c #BE8001",
"0  c #B68115",
"q  c #C48201",
"w  c #CA8500",
"e  c #CD8B01",
"r  c #C4830D",
"t  c #C48A0B",
"y  c #CC8D0A",
"u  c #C78707",
"i  c #D18D01",
"p  c #D38A07",
"a  c #CE9102",
"s  c #CE930B",
"d  c #D39301",
"f  c #DB9500",
"g  c #D59902",
"h  c #DB9B02",
"j  c #D2940A",
"k  c #D5990B",
"l  c #DA9C0B",
"z  c #CB8C13",
"x  c #C88A17",
"c  c #C69417",
"v  c #CC9212",
"b  c #CC901D",
"n  c #CF9812",
"m  c #D29414",
"M  c #D49C14",
"N  c #D89B13",
"B  c #D49D1B",
"V  c #D2911A",
"C  c #E29D01",
"Z  c #E39700",
"A  c #DDA202",
"S  c #DDA20C",
"D  c #DFA90A",
"F  c #DAA115",
"G  c #D6A31E",
"H  c #DCA51B",
"J  c #DFA81C",
"K  c #E3A401",
"L  c #EBA500",
"P  c #E4AA01",
"I  c #EBAC01",
"U  c #E2A50C",
"Y  c #EBAD0C",
"T  c #E5AD0D",
"R  c #F1AC00",
"E  c #ECB301",
"W  c #ECB20A",
"Q  c #E5B008",
"!  c #F3B601",
"~  c #FBB500",
"^  c #F5BA01",
"/  c #FBBD00",
"(  c #F4BC0C",
")  c #FABD0C",
"_  c #E3A213",
"`  c #E3AB13",
"'  c #ECA915",
"]  c #E3AC1C",
"[  c #E9A716",
"{  c #F4AE15",
"}  c #EBB515",
"|  c #EBB619",
" . c #EFBB1B",
".. c #EFBA13",
"X. c #F2BC12",
"o. c #FBB61F",
"O. c #F9BE1A",
"+. c #CB8D25",
"@. c #CC8827",
"#. c #C19222",
"$. c #C79926",
"%. c #D39421",
"&. c #D9992A",
"*. c #DBA524",
"=. c #DEA923",
"-. c #DBA62C",
";. c #DCAB2A",
":. c #D5A722",
">. c #DCAA34",
",. c #D8A432",
"<. c #E2AD24",
"1. c #E3AE2A",
"2. c #E6B224",
"3. c #EBB523",
"4. c #EDBA24",
"5. c #E5B32D",
"6. c #E8B42A",
"7. c #EBBC2C",
"8. c #F0BD23",
"9. c #FABC25",
"0. c #F5B927",
"q. c #E1AE3B",
"w. c #E0AE35",
"e. c #EAB935",
"r. c #E5B43C",
"t. c #E9BC39",
"y. c #E8B433",
"u. c #FCC300",
"i. c #FCC30A",
"p. c #FFCC0C",
"a. c #F7C200",
"s. c #F6C016",
"d. c #FDC514",
"f. c #FCCC13",
"g. c #FFCA1A",
"h. c #F9C21E",
"j. c #FFD115",
"k. c #FAC423",
"l. c #FECB2E",
"z. c #FACA29",
"x. c #FFD020",
"c. c #EFC232",
"v. c #FBCB34",
"b. c #FDCE3B",
"n. c #F4C538",
"m. c #FFD633",
"M. c #FFD13D",
"N. c #CD9047",
"B. c #D39A45",
"V. c #DEAE4E",
"C. c #DAAC51",
"Z. c #DBB35A",
"A. c #E6BA44",
"S. c #EBBD44",
"D. c #E9B747",
"F. c #E6B954",
"G. c #E1B35C",
"H. c #EABC56",
"J. c #F3B554",
"K. c #E7BF68",
"L. c #ECC449",
"P. c #ECC643",
"I. c #F2C345",
"U. c #F5CE49",
"Y. c #FCD34E",
"T. c #FFDC4C",
"R. c #FED140",
"E. c #EECC51",
"W. c #EFC25E",
"Q. c #F1CC5A",
"!. c #F7CA55",
"~. c #EFD05B",
"^. c #FBD457",
"/. c #FAD35B",
"(. c #FEDA5C",
"). c #F9D955",
"_. c #FFE64C",
"`. c #FEE445",
"'. c #FEE557",
"]. c #ECC461",
"[. c #F3CA66",
"{. c #FFDC63",
"}. c #F6D968",
"|. c #ECC471",
" X c #EED474",
".X c #F1D574",
"XX c #F5DC76",
"oX c #F5DE7C",
"OX c #FFED61",
"+X c #FFFA68",
"@X c #FCE273",
"#X c #FAE376",
"$X c #FFF578",
"%X c #DEBA94",
"&X c #EFCE84",
"*X c #E7C18B",
"=X c #F3D48A",
"-X c #F5DC89",
";X c #EDCF93",
":X c #EED294",
">X c #F5D492",
",X c #F6DA99",
"<X c #FBE983",
"1X c #FFE687",
"2X c #FFF88B",
"3X c #FDE493",
"4X c #F7DDB4",
"5X c #F4DBA8",
"6X c #F9E7AB",
"7X c #FFF1AA",
"8X c #F4E3B0",
"9X c #FFF9B7",
"0X c #FFFDCC",
"qX c #FFFCD3",
"wX c #FFF4D8",
"eX c #FFFEE4",
"rX c white",
"tX c #FFFFF3",
/* pixels */
"                      f f C C C K Y X.                          ",
"                w h Y o.o.{ Y ' ' ' { 9.R.'._.                  ",
"              f ~ 9.Y C Z Z Z f i e w w V H.$X+X`.              ",
"            L O.3.L L D.W.].].].F.q.N i w 6 B.XX2X2X            ",
"          ~ 9.R L [.=X&XK.G.V.V.Z.Z.C.z i y 6 +.-XqX0X          ",
"        / 9.R R >X;XG.&.f f l f i m +.2 6 y z 6 e 6XrXeX        ",
"      ! k.R J.4X*Xf f f f f D.|.e d i e 1 q e x 6 g wXrXwX      ",
"    i.f.! ! ,X*Xf K _ _ _ i ] 3XN.i %.d i 1 w e x 6 F.eXtX7X    ",
"    j.^ ^ v.A.C L [ K K C 6 I 1X%X7 &.i d e 1 e w x w =XeX0X    ",
"  b.p./ E a C I ' L K L i r I (.8X@.i %.e i w w i u 6 -.7X9X3X  ",
"  b./ i.a q ! W I L K h 1 j I j.7X%X5 @.w e d q i w w w A.{.!.  ",
"  m.a.( q K / E I I I f w f Y u.@X6Xr.M b w w w w e w q 8 *.<.  ",
"(.x.i.Y e E K K I I P f l l I ) g._.OX'.'.).U.>.6 e w w 2 #.=.c ",
"^.p.d.l e / h q a g l f >.F.C S.Y./ k.l.v.l.3.v w e w w , $.5.$.",
"^.i.h.l h i.^ g u d g g M t.f ` c.I I I L i ; w e e w w , > M 8 ",
"^.i.k.U U X.( E v s d e v 5.d H 7.K S l y < u i e e w w , # : * ",
"^.d.k.} ` s...( S y e e b -.d B 6.L A e < q e e e e w w , o & # ",
"(.g.k.8.]  . .} X.s 1 e y p g h l I E u 1 e e e e i w w : O - & ",
"{.x.k.n.6. . .} X.F 2 e e d g g h I M.S.u e p e e d w e - o * # ",
"@Xm.s.n.S.W 8.|  .M r d h K P A g K Y.Q.z e j d i g w e % . $ o ",
"  T.^ n.Q.] 4.3.3.B s P E P A P K f n.^.%.e k e f d e w O . o   ",
"  /.! 4.[.D.P e.3.B E a.A z x v F A T Y.,.e k d A a d 9 . O o   ",
"  #Xl.E W.=XT } r.=.d.D b B H B v n h n.r.d d K f e g - X $ O   ",
"    (.E E >X:XP 5.e.2.*.=.2.<.<.J B d J 1.d A K s d y + @ $     ",
"    #XM.E y.5X&XK 1.y.6.6.<.<.<.=.J F l k S P g j k > $ 3 =     ",
"      }.| P r.>X.XQ ` 6.6.6.6.2.] J H N U Y l m g t 3 0 4       ",
"        {.P P 1.[.}.P.6.<.<.<.=.=.J ] } T l M g B #.c G         ",
"          {.P ` ] A.E.U.n.c.7.4.4. .| J B B g *.>.:.3.G         ",
"            }.3.A =.;.1.5.6.6.2.2.=.*.*.B g w.L.t.c.;.          ",
"              XXY.` A H *.-.-.-.*.*.k g *.L.).T.P.              ",
"                  .X/.I.6.] ] J =.5.I.{.@X}.~.E.                ",
"                      <XoX.X.X X.X#X<X<X                        "
};
