/* XPM */
static char *_efac6779606425f9b9fb5a019c7f439sU36OanIsA99dfSk[] = {
/* columns rows colors chars-per-pixel */
"32 32 84 1 ",
"  c #FF0000",
". c #FF0900",
"X c #FF1400",
"o c #FF1B02",
"O c #FF1A0C",
"+ c #FF1512",
"@ c #FF1D11",
"# c #FF1D1C",
"$ c #C92119",
"% c #FF2106",
"& c #FF210A",
"* c #FF280F",
"= c #FE2717",
"- c #FF2912",
"; c #FF2D1A",
": c #FF301D",
"> c #FF2523",
", c #FE2C24",
"< c #FF2D2C",
"1 c #FF3123",
"2 c #FF352A",
"3 c #FF3A2E",
"4 c #FF3433",
"5 c #FF3C32",
"6 c #FF3E3A",
"7 c #FF403C",
"8 c #C34545",
"9 c #C94141",
"0 c #FF4542",
"q c #FF4A46",
"w c #FF524D",
"e c #FF5A53",
"r c #FF5D5B",
"t c #FF615F",
"y c #D06463",
"u c #CD7372",
"i c #FF6462",
"p c #FF6A67",
"a c #FF6E6B",
"s c #FE716E",
"d c #FE7673",
"f c #FF7974",
"g c #FE7D7A",
"h c #FD817E",
"j c #FE8682",
"k c #FF8986",
"l c #FF8C8A",
"z c #FF918E",
"x c #FF9390",
"c c #FF9793",
"v c #FB9795",
"b c #FE9795",
"n c #FB9895",
"m c #FF9895",
"M c #FF9B98",
"N c #FF9E9B",
"B c #FB9F9C",
"V c #FF9F9C",
"C c #FFA09D",
"Z c #F1A3A1",
"A c #F1A6A3",
"S c #F1A6A4",
"D c #FFA4A2",
"F c #FFA6A3",
"G c #FFA7A5",
"H c #FBAAA7",
"J c #FFA8A6",
"K c #F1ABA8",
"L c #F1ADAC",
"P c #FBAAA8",
"I c #FFACAA",
"U c #FFAEAC",
"Y c #EFB2AF",
"T c #F0B2AF",
"R c #FBB2AF",
"E c #FFB1AF",
"W c #F1B6B5",
"Q c #FBB6B3",
"! c #FFB5B3",
"~ c #FFB7B5",
"^ c #F1B9B7",
"/ c #FFB9B7",
"( c #F1BAB8",
") c #FFBBB9",
/* pixels */
"$988889888888888988888888988889$",
"yYAASA(SASAAAAAK^ZSAAASAS(AAAAYy",
"uh &XOm2 oXXXo qc &XXXo 2mOX& hu",
"uh 2;6b0=1,,,,owx 2,,,1=0m6;2 hu",
"ud   #l,       5l       ,l#   du",
"unisasUdasiasapgIissaisadUsasinu",
"uQmNNNFNNm!JmNNVFNNmJ~mNNFNNNmQu",
"ug 444>44+jd 44<>44 dk+44>444 gu",
"uh :--;-: ka ;--;-; ak :-;--: hu",
"ud        ht        th        du",
"uBaffdfdfsGcsffffffsbJsfdffdfaBu",
"uRzmbb)MbcMmcmcC/zmbmMcbM)bbmzRu",
"us    z        1l        z    su",
"uj 527mq133323;ecX523331qm725 ju",
"ud . >l,       6l .     ,l> . du",
"uPjlll/zllllllkm~jllllllz/llljPu",
"uHjlllklljEVjlllklljCEjllkllljHu",
"ud        gi        ig        du",
"uj 522323Xlso322323oslX323225 ju",
"us        hr        rh        su",
"uRzmmcNbmx!GxmmmMbmxG!xmbNcbmzRu",
"uBafdgEhdffddfsjUafddffdhEgdfaBu",
"ud    z@       3l       @z    du",
"uh 1*4b6%;;;-;Xwx 1-;;;%6b4*1 hu",
"ug 4<0c0<4,<44>wc 44<,4<0c0<4 gu",
"uQmNNN)CNNFCNNMF/mVNCFNNC)NNNmQu",
"uvisaaiasiFlisaaiasilFisaiaasivu",
"ud .      gi        ig      . du",
"uh 2,,,,2.la.2,,,,2.sl.2,,,,2 hu",
"uh &XXXX% ki oXXXXo pl %XXXX& hu",
"yTAAAAAASZWLASAAAASALWZSAAAAAATy",
"$988888888988888888889888888889$"
};
