/* XPM */
static char *d5b506203324411fafc699b33db023a1pR7mEJIKQAtFQkLB[] = {
/* columns rows colors chars-per-pixel */
"32 32 132 2 ",
"   c None",
".  c #A45604",
"X  c #A75B01",
"o  c #A4560C",
"O  c #A65A0C",
"+  c #A85D08",
"@  c #A9640F",
"#  c #AF6A0A",
"$  c #B16F00",
"%  c #B37102",
"&  c #B87B0F",
"*  c #AB6513",
"=  c #AE6B13",
"-  c #B46E15",
";  c #B06419",
":  c #AE7118",
">  c #B27415",
",  c #B97717",
"<  c #B67C15",
"1  c #BA7B14",
"2  c #B57919",
"3  c #BA7819",
"4  c #BC8204",
"5  c #BF8900",
"6  c #BD840C",
"7  c #BF8A0F",
"8  c #BD8314",
"9  c #BF8817",
"0  c #BD851A",
"q  c #BE891C",
"w  c #BF8A21",
"e  c #C08700",
"r  c #C48E00",
"t  c #C18D0D",
"y  c #C98D0F",
"u  c #C59202",
"i  c #C89500",
"p  c #CC9C02",
"a  c #C5930E",
"s  c #C8960A",
"d  c #C28613",
"f  c #C38C14",
"g  c #C98B15",
"h  c #C28219",
"j  c #C18E1A",
"k  c #CB8B1B",
"l  c #C69314",
"z  c #C99314",
"x  c #CB9A13",
"c  c #C59219",
"v  c #C9941A",
"b  c #CA9B1A",
"n  c #D19516",
"m  c #D39D15",
"M  c #D7A213",
"N  c #D4A21C",
"B  c #DAA619",
"V  c #D6AD1D",
"C  c #DDAA18",
"Z  c #D9B11E",
"A  c #E1AA1D",
"S  c #C59524",
"D  c #C79822",
"F  c #CA9C24",
"G  c #C4952D",
"H  c #CB9D2A",
"J  c #C69936",
"K  c #CDA124",
"L  c #CDA12D",
"P  c #D2A623",
"I  c #D6AC26",
"U  c #DDAB24",
"Y  c #D0A32A",
"T  c #DCB624",
"R  c #DCB825",
"E  c #D6B12B",
"W  c #D9B42F",
"Q  c #DCB82D",
"!  c #CEA53B",
"~  c #D0A734",
"^  c #D3AB33",
"/  c #D2AB3D",
"(  c #D9B031",
")  c #DBBB35",
"_  c #D9B43D",
"`  c #E6BE25",
"'  c #E2BB2A",
"]  c #E5C229",
"[  c #E8C42A",
"{  c #EEC82F",
"}  c #F3C926",
"|  c #E3C434",
" . c #EACB36",
".. c #E5CA3C",
"X. c #F4CE34",
"o. c #EBD13B",
"O. c #D2AB44",
"+. c #D7B144",
"@. c #D6B249",
"#. c #D8B64C",
"$. c #DBB84D",
"%. c #DDBD55",
"&. c #DCBE5B",
"*. c #E3BF51",
"=. c #DEC059",
"-. c #DFC25F",
";. c #E2C352",
":. c #EBCF52",
">. c #E2C75A",
",. c #E2C65C",
"<. c #E9CF58",
"1. c #DFC360",
"2. c #E3C762",
"3. c #E5CA61",
"4. c #E4CB65",
"5. c #E4CB67",
"6. c #E4CA63",
"7. c #E9CF67",
"8. c #E6CD6A",
"9. c #E6CE6D",
"0. c #E7CF6F",
"q. c #EBD368",
"w. c #EBD46A",
"e. c #E8D16C",
"r. c #E8D16E",
"t. c #EBD56F",
"y. c #EED36C",
"u. c #F2D367",
"i. c #E9D370",
"p. c #F2DF73",
"a. c #F6DC71",
"s. c #F2DF78",
/* pixels */
"                                                                ",
"                                                                ",
"                                                                ",
"                                                                ",
"                                                                ",
"                                                                ",
"                    T q * 1 g B ` '                             ",
"                  V B r e H 2 * d ` ..                          ",
"                  3 c %.%.i l > o z [ K                         ",
"                    N #.q.3.L 7 < = x |                         ",
"                  K g F &.=.F b 2 X I                           ",
"                  A t ~ 4./ u 0 . V E                           ",
"                  - Y e.%.l c @ = x { ^                         ",
"                    f ;.s./ r j * 1 T )                         ",
"                  P g 5 ,.8.D l < * N ..                        ",
"                  ; v @.-.#.D c > d  .F                         ",
"                    l $.w.! l 8 @ 0 N |                         ",
"                    k 5 %.t.L x q + I o.V b > > f b T E         ",
"                    g / 0.O.a c = 6 | ( y a 5 D 0 * z } W       ",
"                    g / i.@.u j * & Q G 6 >.4.K x 2 O z o.      ",
"        V j * > l v 8 / e.@.s c 9 N I K 8 J #.w > l U           ",
"      v m u t F 2 = d / 0.+.4 2 0 0 c i 5 X $ z F c |           ",
"      3 D 1.%.x c : % _ <.b % 6 S - 8 O.O.P S = x ] F           ",
"      3 U a.u.m N h 1 Z p f ! +.b l u :.p.H M h - C X.          ",
"            7.x v @ j N - r 3.2.8 , n R       < O v             ",
"                      1 ^ y.*.u c @ #                           ",
"                                                                ",
"                                                                ",
"                                                                ",
"                                                                ",
"                                                                ",
"                                                                "
};
