/* XPM */
static char *_d762c805ff548dfa6b6dd33f5995c1bXay5WHJBTdKNqCcD[] = {
/* columns rows colors chars-per-pixel */
"32 32 124 2 ",
"   c None",
".  c #000001",
"X  c #2D2B04",
"o  c #444308",
"O  c #3E2B43",
"+  c #39234B",
"@  c #6F5A64",
"#  c #755F68",
"$  c #9B980F",
"%  c #979319",
"&  c #9C961D",
"*  c #9E9919",
"=  c #A69A08",
"-  c #AA9E09",
";  c #ADA209",
":  c #B2A509",
">  c #B6A90A",
",  c #BAAD0A",
"<  c #BEB10B",
"1  c #B7B21E",
"2  c #B0AA2F",
"3  c #AEA53E",
"4  c #C3B50C",
"5  c #C6B90D",
"6  c #CABD0E",
"7  c #C5B710",
"8  c #CBBE11",
"9  c #C6BE20",
"0  c #CDC00E",
"q  c #D5CE00",
"w  c #D2C40E",
"e  c #CFC113",
"r  c #D2C413",
"t  c #D5C913",
"y  c #DACC14",
"u  c #DCCF19",
"i  c #DFD214",
"p  c #DCD31A",
"a  c #E1D415",
"s  c #E6DA17",
"d  c #EADD17",
"f  c #E2D419",
"g  c #E6D91B",
"h  c #EADE1C",
"j  c #FBF500",
"k  c #EFE117",
"l  c #EDE11D",
"z  c #F1E317",
"x  c #F2E51C",
"c  c #F6EA1E",
"v  c #FFF11D",
"b  c #DCD624",
"n  c #DCD52A",
"m  c #E8DD20",
"M  c #EEE421",
"N  c #EFE82C",
"B  c #F1E723",
"V  c #F4EB24",
"C  c #F8EE23",
"Z  c #F0E728",
"A  c #F5EE2A",
"S  c #F9EE29",
"D  c #FCF325",
"F  c #FFFB24",
"G  c #FDF52B",
"H  c #FFFB2B",
"J  c #FCF334",
"K  c #FFFA34",
"L  c #FEF53C",
"P  c #FFFC3B",
"I  c #BDB64C",
"U  c #BFB76C",
"Y  c #C7BD6F",
"T  c #DED84B",
"R  c #E8E248",
"E  c #FEF543",
"W  c #FFFD43",
"Q  c #FEF64C",
"!  c #FFFD4A",
"~  c #F6EF57",
"^  c #FDF655",
"/  c #FFF755",
"(  c #FEF757",
")  c #FFFF50",
"_  c #FFFF51",
"`  c #FBF459",
"'  c #FDF658",
"]  c #FEF658",
"[  c #FFF758",
"{  c #FEF659",
"}  c #FFF759",
"|  c #FDF55A",
" . c #FFF75A",
".. c #FFF65B",
"X. c #FFF75B",
"o. c #FEF75C",
"O. c #FFF65D",
"+. c #FFF75E",
"@. c #FEF75F",
"#. c #FFF75F",
"$. c #FFF858",
"%. c #FFF85A",
"&. c #FFFF5A",
"*. c #FFF95C",
"=. c #FFFE5C",
"-. c #FCF661",
";. c #FFF662",
":. c #FFF762",
">. c #FEF763",
",. c #FFF765",
"<. c #FEF766",
"1. c #FFF766",
"2. c #FFFF61",
"3. c #FFF864",
"4. c #FFF865",
"5. c #FFF866",
"6. c #FFF867",
"7. c #FFFD64",
"8. c #FFFF65",
"9. c #FFFD67",
"0. c #FEF769",
"q. c #FFF868",
"w. c #CABFB7",
"e. c #C9BFBA",
/* pixels */
"                                                                ",
"                              G M                               ",
"                              H D                               ",
"                            J W K u                             ",
"                            ) ` L B                             ",
"                          J 2.-.E D 8                           ",
"                          W 3.@.E S s                           ",
"                        G ) 3.@.E S z 5                         ",
"                        K @.q.X.E G c i                         ",
"                      D W ,.3.X.E J C l 4                       ",
"                  G G F Q -.-.X.E J C c d t t                   ",
"      J L L L W ! ! W E %.7.@./ E J G D C D F D c l l h g       ",
"V H W &.7.7.3.3.@.X.X.%.~ T *.Q L K p V G D D D D F F F F v v u ",
"  M L X.,.0.,.-.@.X.X.=.I + R ! P N O 2 F D D D C C V x l d y   ",
"    g K Q / / X.X.X.X.! U w.q W P q e.Y j J D C V M h s y 6     ",
"      u D J L Q Q Q E P 3 @ n P P p # 3 F G A Z M g y w <       ",
"        t x C J L L L P * . n K K n . $ H A Z M g y 6 ,         ",
"          r k C J J J K & . n H H b . % H Z M g y 6 >           ",
"            w z D G G H 9 X Z F H A o 1 G M g t 6 :             ",
"              a C G G G G S H G G H A A Z h y 5 -               ",
"              s F G G G G G G G G G G V M g t 6 =               ",
"              l H G G G G G G G G G A Z h f y 6 ;               ",
"              C H G G G G G G G D A Z M g f u 5 ;               ",
"              G H G G G G D M l g g m h g f y 5 ;               ",
"              F G G G G C h y y r e t p f f y 5 :               ",
"              H G G G B a 8 4 5 5 4 5 e y u y 6 ,               ",
"              H G D x y 4 < , = - , 4 4 8 r r 8 4 =             ",
"            C H D l y 6 , =         - > 5 4 7 7 6 ;             ",
"            C F h y < -                 ; , 5 < 5 >             ",
"            C c 0 :                         : < w ,             ",
"            a <                                 , <             ",
"                                                                "
};
