/* XPM */
static char *_aee669a9919406cb19e9b0e43a8d243wJBAIwbx2JntcHJd[] = {
/* columns rows colors chars-per-pixel */
"32 32 207 2 ",
"   c black",
".  c #000015",
"X  c #2B220B",
"o  c #00012A",
"O  c #030B2A",
"+  c #0F112D",
"@  c #12132E",
"#  c #191B2F",
"$  c #000134",
"%  c #00023B",
"&  c #010D3B",
"*  c #0B113A",
"=  c #171934",
"-  c #201D31",
";  c #2A252C",
":  c #372F2C",
">  c #272A3B",
",  c #4E3A00",
"<  c #543F00",
"1  c #473C22",
"2  c #5E4900",
"3  c #624D09",
"4  c #685000",
"5  c #4B402E",
"6  c #594A2A",
"7  c #544933",
"8  c #63532E",
"9  c #645531",
"0  c #6C5B33",
"q  c #725F33",
"w  c #7C662C",
"e  c #7A6737",
"r  c #000046",
"t  c #000B43",
"y  c #000D49",
"u  c #0D1342",
"i  c #02104B",
"p  c #09134A",
"a  c #121645",
"s  c #000058",
"d  c #011152",
"f  c #01125C",
"g  c #0D165A",
"h  c #101753",
"j  c #121A5B",
"k  c #2E3151",
"l  c #000069",
"z  c #001363",
"x  c #00136B",
"c  c #0D186B",
"v  c #131C62",
"b  c #000071",
"n  c #000377",
"m  c #031675",
"M  c #00167B",
"N  c #0F1B7C",
"B  c #131D78",
"V  c #1B247D",
"C  c #2B306D",
"Z  c #3F457A",
"A  c #5D584F",
"S  c #726752",
"D  c #45496C",
"F  c #6C6D77",
"G  c #866C1F",
"H  c #8A7232",
"J  c #86713D",
"K  c #88723D",
"L  c #937935",
"P  c #867242",
"I  c #967E47",
"U  c #867655",
"Y  c #A68838",
"T  c #9B8245",
"R  c #A58B4B",
"E  c #B09245",
"W  c #AC9152",
"Q  c #B49855",
"!  c #B69A58",
"~  c #BEA057",
"^  c #BEA15B",
"/  c #8A8479",
"(  c #968B73",
")  c #C1A35B",
"_  c #CBAB5E",
"`  c #D6B35F",
"'  c #CAAB61",
"]  c #D4B262",
"[  c #D8B664",
"{  c #DCB965",
"}  c #E1BE68",
"|  c #E5C26B",
" . c #EAC56D",
".. c #EEC96F",
"X. c #EFCA70",
"o. c #F2CD71",
"O. c #000185",
"+. c #00008A",
"@. c #001685",
"#. c #051889",
"$. c #000093",
"%. c #000599",
"&. c #001892",
"*. c #00199B",
"=. c #0A1B98",
"-. c #111E91",
";. c #152298",
":. c #252E89",
">. c #2E3697",
",. c #0002A6",
"<. c #061CA7",
"1. c #001BAC",
"2. c #0000B3",
"3. c #0000BD",
"4. c #001DB3",
"5. c #0318B9",
"6. c #011EBB",
"7. c #1323AB",
"8. c #0D21B7",
"9. c #1627BA",
"0. c #313BB5",
"q. c #3D4391",
"w. c #4C5199",
"e. c #72769D",
"r. c #4C53A9",
"t. c #5F64A0",
"y. c #686DA4",
"u. c #7378BD",
"i. c #0000C3",
"p. c #000FC3",
"a. c #0012C6",
"s. c #001DC5",
"d. c #0321C6",
"f. c #0C23C5",
"g. c #1426C3",
"h. c #1628C6",
"j. c #1B2CC6",
"k. c #2633C8",
"l. c #2936C8",
"z. c #3A43C5",
"x. c #444CC9",
"c. c #4850C5",
"v. c #545AC9",
"b. c #5D63CA",
"n. c #6469CE",
"m. c #6E73C9",
"M. c #7D81CF",
"N. c #8F8A82",
"B. c #908E8F",
"V. c #979697",
"C. c #A69A82",
"Z. c #A49F98",
"A. c #AAA499",
"S. c #888BA7",
"D. c #8A8DB4",
"F. c #9295BA",
"G. c #A7A7A8",
"H. c #ADAEB3",
"J. c #AEB0B4",
"K. c #B5B5B5",
"L. c #B4B6BA",
"P. c #B9BABA",
"I. c #C4C1BB",
"U. c #9295CD",
"Y. c #898DD1",
"T. c #9699D5",
"R. c #A9ABC7",
"E. c #B9BBC4",
"W. c #BABCCA",
"Q. c #ADB0D8",
"!. c #B4B6D8",
"~. c #A9ABE0",
"^. c #B8BBE4",
"/. c #BFC1D6",
"(. c #C2C3C6",
"). c #C4C5CA",
"_. c #C7C8CA",
"`. c #CBCDCD",
"'. c #CFD0CE",
"]. c #D2D3CF",
"[. c #C3C5D2",
"{. c #C9CAD4",
"}. c #CED0D0",
"|. c #D3D4D4",
" X c #D6D7D6",
".X c #D9DAD2",
"XX c #DCDDDC",
"oX c #E2DFDA",
"OX c #DFE0DF",
"+X c #E2E3DD",
"@X c #CCCDE7",
"#X c #DBDCEB",
"$X c #DFE0E1",
"%X c #E4E5E4",
"&X c #E7E8E5",
"*X c #E5E5EB",
"=X c #ECECEC",
"-X c #F2F2ED",
";X c #EEEFF2",
":X c #EFEFF8",
">X c #F0F0F1",
",X c #F4F4F4",
"<X c #FAFAF2",
"1X c #F6F7F9",
"2X c #FAFAFA",
"3X c #FDFDFD",
"4X c #FFFFFF",
/* pixels */
"&X=X4X4X=X%X4X:XM.i.s.!.,X=X>X>X>X;X,X#Xv.i.x.@X4X&X=X4X4X=X&X4X",
"=X>X2X2X=X<X#Xv.i.a.^.<X=X;X>X>X>X>X;X<X*Xv.i.f.~.,X>X2X2X>X=X2X",
"4X4X=X*X4X#Xl.i.i.T.<X=X=X=X=X=X=X>X>X=X<X@Xd.i.3.~.4X=X=X4X4X=X",
"4X4X=X-X:Xx.i.j.z.*X=X=X=X=X=X=X=X=X=X=X=X<XY.i.h.i.^.-X=X4X4X=X",
"=X;X2X2Xn.i.l.i.Y.-X%X=X=X=X=X=X=X=X=X=X=X=X@Xi.k.p.i.#X4X=X=X2X",
"&X*X4X^.3.k.h.i.!.&X#X%X&X&X&X&X&X&X&X&X&X&X#Xz.i.k.i.n.4X=X&X4X",
",X,X<XT.i.j.d.i.[.+XXXXXOXOX%X%X%X%X%X%X%X$X%Xv.i.j.a.z.XX2X,X,X",
"4X4X+X!.i.f.f.a./.XX XXXXXXXXXXXXXXXXXXXXXXXXXb.i.j.i.M.].2X4X=X",
"2X>X].[.s.s.h.i.Q..X|.|.|.|.|.|.|.|.|.|.|.|.|.x.i.j.i.U..X%X4X>X",
"=X X`.{.g.s.j.i.U..X}.|.|.|.|.|.|.|.|.|.|.|.[.s.s.j.i.U..X_.=X4X",
"=X(.`.[.9.5.9.3.r.|.`.}.}.}.}.'.}.}.`.}.`..XU.i.j.h.i.U..XE.#X4X",
",XL.].W.1.4.4.9.2.R..X_.`.`.`.`.`.`.`.`.'.{.0.5.f.h.i.Y..XL.XX,X",
"=XJ.].R.,.<.<.7.,.0.).|.)._.`.`.`.`.).`.|.m.2.9.s.h.i.m.].L.`.>X",
"|.H.].F.$.;.*.*.;.%.r.E.|.'._._._.`.].`.u.2.8.6.6.g.i.c.`.P.P.,X",
"_.H.`.y.+.;.&.&.&.;.$.>.D.E.`.}.`.).H.r.,.<.<.4.4.8.6.4.W.P.K.4X",
").H.E.:.O.#.@.@.@.#.-.O.+.>.t.y.t.w.&.$.&.=.*.<.1.1.7.%.D.I.H.,X",
"`.K.S.b V M M M M m m B n b b b b b n N #.@.&.&.*.*.-.+.q.L.L.=X",
"XXG.C l c x x x z z f d j j j g g j v z x x m M @.@.@.B n e.`.=X",
"|.D s j d d d d i i u a * t t t y y i h h g f z x x x m N O.R.4X",
" Xr u t & & & & * * $ o $ @ # - # = % % % t a p d f f x V O.R.4X",
"4XF . = o O O @ o o ; 5 6 8 8 8 8 8 6 7 : @ $ & u y d z B #.*X,X",
"4X|.  > O O O o : 8 e e 0 J J J J K 0 q e 9 5 + $ * r C l F.4X=X",
",X4XV.  > # o 7 e J T I G.R Q Q ! Y Z.( L P e 9 ; $ k % Z ;X2X>X",
"&X=X4XB.  . 5 J I Q ] Q A _  .| | { S U ` ^ R J 8 =   D *X-X&X4X",
"=X=X4X4XK.> 6 W ) ] ..)   _ o. ... .X q o. .[ Q 0 . B.>X4X=X=X2X",
"4X4X=X=X4X,XC.E ) _  .!   _ o.|  .| X 0 o.| { ~ P |.4X=X=X4X4X=X",
"4X4X=X=X4X4XI.Y ^ _ | _   ] X. . .X.1 J o.{ ' R ( 4X4X=X=X4X4X=X",
"=X>X2X2X=X,XoXL Q ) [ | '  . . . ...] { | ] ' L A.1X=X2X2X>X>X2X",
"&X=X4X4X=X&X4XC.G ! _ { | } } } } } | { ] ' W w %X=X&X4X4X=X&X4X",
",X,X,X,X,X>X2X%XS 4 I Q ! ^ ) ) ) ^ ! W R H 4 K.4X>X,X,X,X,X,X,X",
"4X4X=X=X4X4X=X=X=XA.A , < 2 3 3 3 2 < , 6 / ].=X=X4X4X=X=X4X4X=X",
"4X2X=X=X2X4X=X=X4X4X=X`.K.V.N.N.N.B.G.I.XX4X4X=X>X4X2X=X=X2X4X=X"
};
