/* XPM */
static char *feecf197ff224f9a9ba4f889d8912e0aZxPBMVxPT7wr82uU[] = {
/* columns rows colors chars-per-pixel */
"32 32 190 2 ",
"   c #6B0000",
".  c #740000",
"X  c #7E0000",
"o  c #004C00",
"O  c #005900",
"+  c #055B0C",
"@  c #006500",
"#  c #006C00",
"$  c #02670A",
"%  c #007200",
"&  c #007D00",
"*  c #147C1C",
"=  c #3B7900",
"-  c #1E7C23",
";  c #216E24",
":  c #29702C",
">  c #316F33",
",  c #357137",
"<  c #367038",
"1  c #7A5E00",
"2  c #796935",
"3  c #5D5757",
"4  c #695A54",
"5  c #467247",
"6  c #5C775C",
"7  c #676B67",
"8  c #787161",
"9  c #797475",
"0  c #830000",
"q  c #8E0000",
"w  c #920000",
"e  c #9D0000",
"r  c #84191D",
"t  c #A40000",
"y  c #AB0000",
"u  c #B40000",
"i  c #BB0000",
"p  c #B8000E",
"a  c #A80B1A",
"s  c #B80615",
"d  c #B2131E",
"f  c #BD0024",
"g  c #BB2528",
"h  c #AE2F34",
"j  c #B22C30",
"k  c #C40000",
"l  c #CC0000",
"z  c #C7000B",
"x  c #D40001",
"c  c #D90000",
"v  c #C70013",
"b  c #D2101B",
"n  c #CB1921",
"m  c #C4252C",
"M  c #CE232A",
"N  c #D6252B",
"B  c #D72C32",
"V  c #8D5F00",
"C  c #A47B00",
"Z  c #8E4849",
"A  c #B6484A",
"S  c #BF4C50",
"D  c #AB5456",
"F  c #B55A5C",
"G  c #997946",
"H  c #816868",
"J  c #887F67",
"K  c #867874",
"L  c #A76768",
"P  c #B16162",
"I  c #B17F7F",
"U  c #D24649",
"Y  c #D84F52",
"T  c #CF6F71",
"R  c #C37678",
"E  c #008504",
"W  c #008B02",
"Q  c #00820F",
"!  c #009C00",
"~  c #018D12",
"^  c #0A8D17",
"/  c #0B8F18",
"(  c #118E1B",
")  c #029314",
"_  c #089317",
"`  c #029B15",
"'  c #0D9C1B",
"]  c #00A100",
"[  c #00AA00",
"{  c #00B100",
"}  c #01A317",
"|  c #01AA18",
" . c #01AB18",
".. c #1D8223",
"X. c #1B8B22",
"o. c #1C9223",
"O. c #238B29",
"+. c #2B882F",
"@. c #239B2A",
"#. c #1DA727",
"$. c #22A32A",
"%. c #22A82B",
"&. c #20B52A",
"*. c #458400",
"=. c #79887B",
"-. c #9D8432",
";. c #C59200",
":. c #D7A300",
">. c #E4B800",
",. c #F1BF00",
"<. c #CEAA33",
"1. c #F9C200",
"2. c #998E6A",
"3. c #AA9C67",
"4. c #B2A26F",
"5. c #D2AC5F",
"6. c #838B83",
"7. c #898985",
"8. c #8C8B8B",
"9. c #918686",
"0. c #8D9191",
"q. c #949393",
"w. c #979C97",
"e. c #959799",
"r. c #9C9B9B",
"t. c #AB9393",
"y. c #B19999",
"u. c #A8A79C",
"i. c #BDB19E",
"p. c #9D9EA1",
"a. c #A4A4A4",
"s. c #A6ABA6",
"d. c #A9A7A8",
"f. c #A5ABAB",
"g. c #ADACAC",
"h. c #B6AEAE",
"j. c #BEB7A3",
"k. c #AFB3B3",
"l. c #B4B4B5",
"z. c #BCB2B2",
"x. c #B9B6B9",
"c. c #BCBCBC",
"v. c #C48B8C",
"b. c #DD8384",
"n. c #CC9A9B",
"m. c #D99394",
"M. c #CBB198",
"N. c #D5A5A6",
"B. c #D1AFB0",
"V. c #C2B7B7",
"C. c #DCB8B8",
"Z. c #CFC3BF",
"A. c #C1BCC1",
"S. c #BDC1C4",
"D. c #C2C3C4",
"F. c #C5C9C9",
"G. c #CBCACB",
"H. c #D9C5C5",
"J. c #CFD0CF",
"K. c #D1CFD1",
"L. c #CED2D2",
"P. c #D4D3D4",
"I. c #D8D5D6",
"U. c #D5D6DA",
"Y. c #D5DADB",
"T. c #DBDCDC",
"R. c #E1C1C1",
"E. c #E7CECF",
"W. c #E8D5D5",
"Q. c #E1DEDE",
"!. c #E1DEE1",
"~. c #DDE2E2",
"^. c #E3E3E4",
"/. c #E7E7E8",
"(. c #E9E6E9",
"). c #E5E9EA",
"_. c #EBECED",
"`. c #F0EFEF",
"'. c #EDEFF3",
"]. c #F1EFF1",
"[. c #ECF3F3",
"{. c #F6F6F6",
"}. c #F8F7F7",
"|. c #F7F8F7",
" X c #F8F8F7",
".X c #F7F7F9",
"XX c #F8F6F8",
"oX c #F7F8FA",
"OX c #FCFCFC",
"+X c #FFFFFF",
/* pixels */
"|.|.|.|.|.|.|. XOXOXOX|. X X|.|.|.|. X X|.OXOXOXOX|.|.|.|.|.|.|.",
"|.|.|.|.|.|. X{.c.l.I..X'.'.|.|.|.|.{.'.oXT.g.g.I.OX|.|.|.|.|.|.",
"|.|.|.|.|.|.|.q.l.P.p.J 4.2 G.OX}._.8 3.2.8.F.G.8.F.OX|.|.|.|.|.",
"|.|.|.|.|.OXG.a. X{.oXj.1.-.^. X|..X7.,.5.U.P.P.I.8.|.|.|.|.|.|.",
"|.|.|.|.|.OXY.a.|._.{.'.G g.OXOX XOX~.V Z.Y.G.G.P.r.{.|.|.|.|.|.",
"|.|.|.|.|. X_.3 ^.|._. Xl.K x.G.^.F.l.7 T.I.G.Y.r.r.OX|.|.|.|.|.",
"|.|.|.|.|.OXp.t I [.`.{.^.<.:.7 S.1 >.i.).I.I.c.t r T.OX|.|.|.|.",
"|.|.|.|.OXY.0 B i z.|._.[.M.C Y.OXu.;.I._.Y.P.Z y y 9. X|.|.|.|.",
"|.|.|.|.OXq.i M c A ).{.}.D.e.OX|./.7 _.^.~.h.t h u X Y.OX|.|.|.",
"|.|.|. X_.Z l M N k V.|._._.8._.OXD.g.{.T.T.L u y F D g.OX|.|.|.",
"|.|.|.OXY.q c l x c F _.`.|.D.r.P.7._.^.^.c.y u n.T.I.e. X|.|.|.",
"|.|.|.OXF.t.W.R.Y c k V.oX_.|.G.g.^._.Q.T.L i R ^.P.P.q.{.|.|.|.",
"|.|.|.OXG.k.^.~.W.x c j ~.|._.|.|._.Q.).y.i i B.~.P.P.q.{.|.|.|.",
"|.|.|.OXY.r.^.I.).b.x c L ).{./.^.^.).z.y k u n.^.P.G.r. X|.|.|.",
"|.|.|.|.|.8.Y.I.).m.x B x P G.~.T.P.t.u m.N.s d H.).g.c.OX|.|.|.",
"|.|.|.{.OXc.d._.Q.U x N B c k S F p k E._.[.n.y a R K {..X|.|.|.",
"|.|.|.|.|.}.0.V.T k n l l l b x l l R.[.Q._.v.t g   L.OX|.|.|.|.",
"|.|.|.|.|. X{.H e M z m.H.N.v z m i C.).^.B.p y . F.OX|.|.|.|.|.",
"|.|.|.|.|.|. XoXf.X v._._.[.C.i g s i T S y w 8 U.OX|.|.|.|.|.|.",
"|.|.|.|.|.|.|.|.OXT.f.q.g.D.K.f p u t w 0 K S.[.OX|.|.|.|.|.|.|.",
"|.|.|.|.|.|.|. XOXOXOX{.J.x.9 = *.4 g.F.).OXOXOX|.|.|.|.|.|.|.|.",
"|.|.|.|.|. XOX_.G.x.x.I.XXOXe.! [ =.OXXXI.x.l.G._.OX X|.|.|.|.|.",
"|. XOXOXOX(.d.< & W W & 5 A.=.] [ 6 x.5 & W W & , a.(.OXOXOX X|.",
"OXY.6.s.w.> W { &.%.$.$.! # +  . .$ @ ! #.$.%.&.{ W , w.s.6.Y. X",
"OXI.o & & ! $.' ~ ~ ` ~ * - ~  . .~ - * ~ ` ) ~ ' $.! E & o I.OX",
"|.{.6 E +.^ Q ) }  . .` ) $ } } } ) $ ) ` }  .} ) Q ^ +.W 6 {.|.",
"|.OXA.O O.X._ ` ` ` ) ( O...} ` ` ) - O.( ) ` ` ` _ X.O.O c.OX|.",
"|.|. Xg.O & W X.o.o./ W # # #.@.@.` O % W ^ o.o.X.W & O a. X|.|.",
"|.|.|.OXI.=.: # # # # 5 s.e.# & & @ g.s.5 # # # # ; 6.K.OX|.|.|.",
"|.|.|.|.OX X(.I.K.I.!.].OX XI.x.c.!.OXOX].!.I.K.I.(. XOX|.|.|.|.",
"|.|.|.|.|.|. XOXOXOXOX X|.|.OXOXOX X|.|.XX XOXOXOX X|.|.|.|.|.|.",
"|.|.|.|.|.|.|.|.|.|.|.|.|.|.|.|.|.|.|.|.|.|.|.|.|.|.|.|.|.|.|.|."
};
