/* XPM */
static char *b8b13e09497f4cf1aab4d78c7ff1df5dKGMx9OFqKFHvTabE[] = {
/* columns rows colors chars-per-pixel */
"32 32 215 2 ",
"   c #000000",
".  c #080405",
"X  c #0D0C0C",
"o  c #17130F",
"O  c #000B10",
"+  c #00001C",
"@  c #050B1B",
"#  c #18001C",
"$  c #001415",
"%  c #091516",
"&  c #001B13",
"*  c #001D1C",
"=  c #141313",
"-  c #1B1515",
";  c #1B1815",
":  c #1D1C1C",
">  c #230600",
",  c #350E02",
"<  c #2E1105",
"1  c #23120D",
"2  c #3D1002",
"3  c #331109",
"4  c #350017",
"5  c #241413",
"6  c #211E1D",
"7  c #331616",
"8  c #002117",
"9  c #22211F",
"0  c #31241C",
"q  c #372B1F",
"w  c #000029",
"e  c #001422",
"r  c #001E21",
"t  c #1A1A24",
"y  c #002324",
"u  c #002A24",
"i  c #012B2B",
"p  c #0F2A2B",
"a  c #1C2323",
"s  c #112A28",
"d  c #1C2A2A",
"f  c #1C2831",
"g  c #242424",
"h  c #2B2524",
"j  c #2F2B27",
"k  c #252729",
"l  c #242B2C",
"z  c #2C2C2C",
"x  c #332525",
"c  c #362926",
"v  c #322E2E",
"b  c #3D2B29",
"n  c #2D2F34",
"m  c #323232",
"M  c #3A3736",
"N  c #3C353C",
"B  c #3B3A3A",
"V  c #470804",
"C  c #550707",
"Z  c #401104",
"A  c #4C191A",
"S  c #52111C",
"D  c #6C0000",
"F  c #770000",
"G  c #71160F",
"H  c #7F180E",
"J  c #6A0013",
"K  c #720011",
"L  c #511928",
"P  c #680021",
"I  c #691326",
"U  c #4D2728",
"Y  c #4D3828",
"T  c #423332",
"R  c #413E3E",
"E  c #762B24",
"W  c #703D20",
"Q  c #79671B",
"!  c #58493A",
"~  c #754227",
"^  c #69503E",
"/  c #444242",
"(  c #4D4C4C",
")  c #5B4F4C",
"_  c #455055",
"`  c #565453",
"'  c #5D5C5C",
"]  c #6A5646",
"[  c #705D49",
"{  c #615F5F",
"}  c #78624E",
"|  c #726054",
" . c #646463",
".. c #696565",
"X. c #6C6B6B",
"o. c #716F6F",
"O. c #74766F",
"+. c #737272",
"@. c #7A7777",
"#. c #7A7877",
"$. c #7B7A7A",
"%. c #870008",
"&. c #8E1C0F",
"*. c #870018",
"=. c #93041E",
"-. c #A4000E",
";. c #BA1D07",
":. c #AB1D1A",
">. c #862413",
",. c #9C2C1D",
"<. c #A72218",
"1. c #B42510",
"2. c #AC321D",
"3. c #B4351D",
"4. c #962F20",
"5. c #D60000",
"6. c #CB1A0F",
"7. c #E30000",
"8. c #E0000D",
"9. c #FE0003",
"0. c #E71C0D",
"q. c #F31B04",
"w. c #F3150A",
"e. c #D72C0F",
"r. c #EC2D0C",
"t. c #F82805",
"y. c #FC290C",
"u. c #EB2C17",
"i. c #FF3010",
"p. c #DD3B30",
"a. c #AB4E18",
"s. c #C54D15",
"d. c #D04413",
"f. c #EE4812",
"g. c #F75F1B",
"h. c #DC6614",
"j. c #ED6916",
"k. c #F07417",
"l. c #EF402A",
"z. c #C96C20",
"x. c #885748",
"c. c #846A51",
"v. c #896D54",
"b. c #9B7E5F",
"n. c #A46946",
"m. c #B06B43",
"M. c #BF7141",
"N. c #967C64",
"B. c #E24946",
"V. c #D87E40",
"C. c #E37168",
"Z. c #D99A1E",
"A. c #EC911C",
"S. c #F9901B",
"D. c #FFA21F",
"F. c #F19C29",
"G. c #F3B623",
"H. c #F2CF28",
"J. c #FDE52C",
"K. c #B9865B",
"L. c #808876",
"P. c #9E8B78",
"I. c #A58665",
"U. c #B58D62",
"Y. c #B4916A",
"T. c #B9946C",
"R. c #B79477",
"E. c #D58B54",
"W. c #F69F55",
"Q. c #FBBB5D",
"!. c #DE886D",
"~. c #C0996E",
"^. c #C69F75",
"/. c #CDA57C",
"(. c #D7AB7C",
"). c #FBCC55",
"_. c #838787",
"`. c #8B8B8B",
"'. c #908E8E",
"]. c #899292",
"[. c #959798",
"{. c #B09284",
"}. c #A09E9D",
"|. c #A4A3A3",
" X c #ABABAB",
".X c #B3B2B2",
"XX c #BFBEBE",
"oX c #DF9992",
"OX c #E19793",
"+X c #D3AC8A",
"@X c #D8AF88",
"#X c #D8ABA3",
"$X c #E6BBB6",
"%X c #E3C1B9",
"&X c #C3C2C2",
"*X c #C8C7C7",
"=X c #C9C8C7",
"-X c #CBCACA",
";X c #DDCDC7",
":X c #D4D3D3",
">X c #D5D7D8",
",X c #DCDCDC",
"<X c #E9D1CE",
"1X c #ECD3CF",
"2X c #E7DCD9",
"3X c #FCE3C0",
"4X c #E5E4E4",
"5X c #EDE3E3",
"6X c #EEEDED",
"7X c #F0EFEF",
"8X c #F0EFF0",
"9X c #F2F2F2",
"0X c #F8F7F7",
"qX c #F3FAFA",
"wX c #FAFAFA",
/* pixels */
"9X7X8X7X7X7X7X7X7X7X9X9X7XqX1XOX5X8X6X7X7X7X7X7X7X7X7X7X7X7X9X6X",
"7X9X7X7X7X7X7X7X7X9X7X6X9X2X$XB.$XqX6X7X8X7X7X7X7X7X7X7X7X7X7X9X",
"9X7X7X7X7X7X7X7X9X7X9X9X9XC.7.#XqX8X7X9X7X7X8X7X7X7X7X7X7X7X7X7X",
"7X7X7X7X9X9X7X9X7X9X<X<X4Xp.t.B.oX<X9X6X6X6X7X9X7X7X7X7X7X7X7X7X",
"7X7X7X9X6X6X9X7X6X9X2X!.C.q.Q.l.7.%X0X0X0X9X6X6X9X7X7X7X7X7X7X7X",
"7X7X9X6X9X7X6X6X0XwX2Xw.g.W.3X).f.p.#X>X:X4XwX9X6X9X7X7X7X7X7X7X",
"7X9X6X9X6X9X9XwX-X].x.%.c.L.O.Q ~ J 7 z m ` |.6X7X7X7X7X7X7X7X7X",
"7X6X9X4XM `.0X|.    O i +     w e u r X X     |.wX6X9X7X7X7X7X7X",
"7X6XwX|. .( ..  = z z x b j j 0 h x z z z z g ' 2X0X6X9X7X7X7X7X",
"7X6X9X>XwX}.  x g g x k y $ * d v m m v z z z X { 4X0X6X9X7X7X7X",
"7X9X6X0X4Xn o $ : h u u >.6.:.c l v m m m z z z . +.6X9X6X9X7X7X",
"7X9X6XwX].D u.H $ y *.5.9.y.t.6.p v m m m m z z v X _.9X9X6X9X7X",
"7X6X9X,X7 0.i.0.* S r.S.k.w.y.q.U l v m m m v z k m ; '.0X9X6X9X",
"9X6XwX].F F.Z.6.u *.A.J.J.j.9.0.c z v m m m m v z z v 6 '.6X9X6X",
"6X0X:X  a.J.G.%.u P h.G.H.j.9.<.i v z m m m m m v z z z ; @.4X9X",
"9X6X`   3.D.s.# z d =.d.d.8.:.d z m v m M M M M m m z z m = @.6X",
"wX`.  i K -.4 s h k p L I U i z z ; v M B R / R B M m z g M 6 .X",
"&X  g X $ & & - = 5 5 & 8 * % $ a (   g M B / / R M m z z z : @.",
"o.  : = . < , , , < >     > V C A |.@.  g m M M M m z z z g = { ",
"(   z  .b V Z 2 2 V G &.1.e.r.r.;.+.}.M g v z z z k g g g m   o.",
"'   T X./ 7 3 3 C G ,.2.3.2.,.4.E l z z z z z z z z g :       *X",
"|.  j v g g 6 6 g h a * r r r y y g 9 g a 9             z ..-X0X",
"9X$.                  = 1 1 1 1 1 = ; = ;   _ $.`. XXX:X4X9X0X6X",
"9X9X}./ : X       e l - + e @ @ t f l v N W {.wXwXwX0X0X9X7X6X7X",
"6X7XwX9X:X&XXX=X>X;X+X] x.n.N.I.N.m.n.| ) M.z.|.>X6XwX6X6X9X7X7X",
"9X0X&X`.+. ...#.[.R.K.Y.E.V.@X@X@XE.E.T.I.v.c.Y O { .X9X9X6X9X7X",
"0X X                o U.(./.@X@X@X/.^.T.I.v.} c       +.6X9X6X9X",
"4X=   z g : : : : :   q T.(./.^.~.Y.Y.b.c.^ 0 . 6 6 :    .6X9X7X",
"9X$.    : z z : X   .   ; ] N.P.P.P.[ ! 0     = X X = m   .XwX6X",
"9X6X XX.B = X g z z g 6 k   [.0X4X0X`.  a : : : g g       =X0X6X",
"6X9XwX6X>X.X`.' M =       z >XwX9X9X6X..              X.*X0X6X9X",
"9X6X6X9X0XwX0X6X>XXX X|. X,X9X6X6X6X9X6X X' (  ._. X>X9X0X7X9X7X"
};
