/* XPM */
static char *_68dc532b1a94ac6ac94e054dc40bdefTntwmsQDtfKtRqlm[] = {
/* columns rows colors chars-per-pixel */
"32 32 210 2 ",
"   c None",
".  c #005B03",
"X  c #005C03",
"o  c #015D05",
"O  c #006204",
"+  c #006806",
"@  c #006906",
"#  c #006B07",
"$  c #006D06",
"%  c #006D07",
"&  c #006E07",
"*  c #046009",
"=  c #046509",
"-  c #08620D",
";  c #006E08",
":  c #006F09",
">  c #007109",
",  c #007309",
"<  c #017508",
"1  c #00740A",
"2  c #00750A",
"3  c #00770B",
"4  c #08710F",
"5  c #00790A",
"6  c #00780B",
"7  c #00790B",
"8  c #007A0A",
"9  c #007B0A",
"0  c #007C0A",
"q  c #007C0B",
"w  c #007E0A",
"e  c #00790C",
"r  c #007F0D",
"t  c #007F0E",
"y  c #00820B",
"u  c #00840B",
"i  c #00810D",
"p  c #00820C",
"a  c #00800E",
"s  c #00810E",
"d  c #00820E",
"f  c #00830E",
"g  c #00840C",
"h  c #00850C",
"j  c #00860C",
"k  c #00870C",
"l  c #00840F",
"z  c #00850F",
"x  c #00870E",
"c  c #00860F",
"v  c #00870F",
"b  c #008A0B",
"n  c #008B0B",
"m  c #008C0B",
"M  c #008E0B",
"N  c #00880C",
"B  c #00890C",
"V  c #008A0C",
"C  c #008B0C",
"Z  c #00890E",
"A  c #00880F",
"S  c #00890F",
"D  c #008B0F",
"F  c #008C0C",
"G  c #008D0C",
"H  c #008D0D",
"J  c #008F0C",
"K  c #008E0D",
"L  c #008F0D",
"P  c #008E0F",
"I  c #00910C",
"U  c #00910E",
"Y  c #00920E",
"T  c #00930E",
"R  c #00930F",
"E  c #00960D",
"W  c #00970D",
"Q  c #00950E",
"!  c #00980E",
"~  c #00990E",
"^  c #009A0E",
"/  c #009B0E",
"(  c #009C0E",
")  c #009D0F",
"_  c #009E0E",
"`  c #009F0F",
"'  c #009310",
"]  c #009410",
"[  c #009511",
"{  c #009610",
"}  c #009710",
"|  c #009711",
" . c #009811",
".. c #009A11",
"X. c #009B11",
"o. c #009C10",
"O. c #009D11",
"+. c #009E10",
"@. c #009E11",
"#. c #009F12",
"$. c #00A00F",
"%. c #00A10F",
"&. c #00A30F",
"*. c #00A40F",
"=. c #00A50F",
"-. c #00A011",
";. c #00A210",
":. c #00A211",
">. c #00A311",
",. c #00A212",
"<. c #00A312",
"1. c #00A410",
"2. c #00A610",
"3. c #00A412",
"4. c #00A512",
"5. c #00A612",
"6. c #00A712",
"7. c #00A613",
"8. c #00A713",
"9. c #00AB10",
"0. c #00A912",
"q. c #00A813",
"w. c #00A913",
"e. c #00AA13",
"r. c #00AB13",
"t. c #00AC10",
"y. c #00AD11",
"u. c #00AC13",
"i. c #00AD13",
"p. c #00AE13",
"a. c #00AF13",
"s. c #00AB14",
"d. c #00AC14",
"f. c #00AD14",
"g. c #00AE14",
"h. c #00AF14",
"j. c #00B713",
"k. c #00B014",
"l. c #00B114",
"z. c #00B214",
"x. c #00B314",
"c. c #00B215",
"v. c #00B315",
"b. c #00B414",
"n. c #00B514",
"m. c #00B415",
"M. c #00B515",
"N. c #00B614",
"B. c #00B615",
"V. c #00B715",
"C. c #00B813",
"Z. c #00B913",
"A. c #00B814",
"S. c #00B815",
"D. c #00B915",
"F. c #00BA15",
"G. c #00BC14",
"H. c #00BE14",
"J. c #00BF16",
"K. c #00C115",
"L. c #00C215",
"P. c #00C315",
"I. c #00C016",
"U. c #00C116",
"Y. c #00C416",
"T. c #00C516",
"R. c #00C417",
"E. c #00C616",
"W. c #00C716",
"Q. c #00C617",
"!. c #00C717",
"~. c #00C915",
"^. c #00C816",
"/. c #00C916",
"(. c #00C817",
"). c #00C917",
"_. c #00CA16",
"`. c #00CB16",
"'. c #00CA17",
"]. c #00CB17",
"[. c #00CD16",
"{. c #00CC17",
"}. c #00CD17",
"|. c #00CE17",
" X c #00CF17",
".X c #00CC18",
"XX c #00CD18",
"oX c #00CF18",
"OX c #00D017",
"+X c #00D217",
"@X c #00D018",
"#X c #00D118",
"$X c #00D218",
"%X c #00D318",
"&X c #00D319",
"*X c #00D418",
"=X c #00D518",
"-X c #00D618",
";X c #00D718",
":X c #00D818",
">X c #00D918",
",X c #00DA18",
"<X c #00DB18",
"1X c #00DB19",
"2X c #00DC19",
"3X c #00DD19",
"4X c #00DE19",
"5X c #00DF19",
"6X c #00E019",
"7X c #00E119",
/* pixels */
"o # > ; 6 6 y u v v v N N N N N H H H ( *.%.%.%.E ( *.! E ! ( 3 ",
"X e v d  .| 4.e.s.f.f.k.k.k.B.B.S.S.S.;X7X4X4X4XW.;X7XXX(.XX#XH ",
". 3 d r | ' ,.4.4.4.e.e.u.u.f.k.k.B.k.|.;X;X;X;XH.|.<XW.L.W.(.b ",
". 6 v r | | ,.4.4.e.e.u.u.f.k.k.k.B.B.+X<X<X<X<XL.+X<X(.W.W.XXb ",
". 3 v r | | ,.4.4.e.e.e.u.f.k.k.k.B.B.+X<X;X<X;XL.|.<X(.W.W.XXb ",
". 6 v r | | ,.4.e.e.e.e.u.f.k.k.k.B.B.+X<X;X<X;XL.|.<X(.W.W.XXb ",
". 3 v r | | ,.4.4.e.e.e.u.f.k.k.k.B.B.|.<X;X<X;XL.|.<X(.W.W.XXb ",
". 6 v d  .| 4.4.e.e.u.u.u.k.k.B.B.S.S.#X4X<X<X<XW.#X4X|.W.(.#XM ",
"O q N d T H @.@.@.,.,.,.,.4.4.4.e.e.4.L.(.(.(.(.k.L.|.H.L.(.|.M ",
"  -   * # 3 3 6 d v H H H H T T T ( u.e.u.u.%.,.u.4.4.E =   4   ",
"        % v d N  .@.f.f.f.k.k.B.B.(.4X4X4X4X(.(.7X+XXXH.        ",
"        % d d N |  .e.e.e.u.f.k.k.W.<X;X;X<XW.W.<X|.(.C.        ",
"        % d d N |  .e.e.e.u.f.k.k.W.<X;X;X<XW.W.<X|.(.C.        ",
"        % v d N |  .e.e.e.u.f.k.k.W.<X;X<X<X(.(.<X|.(.C.        ",
"        % d d N  . .e.e.u.u.f.k.k.W.<X;X<X<XW.(.<X|.(.C.        ",
"        % d d N  . .e.e.u.u.f.k.k.W.<X;X<X<XW.(.<X|.(.C.        ",
"        % d d N  . .e.e.e.u.f.k.k.W.<X;X<X<XW.(.<X|.|.C.        ",
"        % d d N  . .e.e.e.u.f.k.k.W.<X;X<X<XW.(.<X|.|.C.        ",
"        % d d N  . .e.e.e.u.f.k.k.W.<X;X<X<XW.(.<X|.(.C.        ",
"        % d d N  . .e.e.e.u.f.k.k.W.<X<X<X<XW.(.<X|.(.C.        ",
"        % d d A  . .e.e.e.u.f.k.k.W.<X;X;X<XW.(.<X|.(.C.        ",
"        % d d N  . .e.e.e.u.f.k.k.W.<X;X<X<XW.(.<X|.(.C.        ",
"        % d d N  . .e.e.e.u.k.k.k.W.<X;X;X<XW.(.<X|.(.C.        ",
"        % d d N  .@.e.e.u.u.k.k.k.W.<X;X<X<XW.(.<X|.(.C.        ",
"        % d d A  . .e.e.u.u.k.k.k.W.<X;X<X<XW.(.<X|.(.C.        ",
"        % d d N  . .e.e.u.u.k.k.k.W.<X;X<X<XW.(.<X|.(.C.        ",
"        % d d N  . .e.e.e.u.f.k.k.W.<X;X<X<XW.(.<X|.(.C.        ",
"        % d d N |  .e.e.e.u.f.k.k.W.<X;X<X<XW.W.<X|.(.C.        ",
"        % d d N  . .e.e.u.u.f.k.k.W.<X;X<X<XW.(.<X|.(.C.        ",
"        % d d v |  .e.e.e.u.f.k.u.W.<X;X;X<XW.W.<X|.(.j.        ",
"        % v d N  .@.f.f.k.k.B.B.B.(.7X4X4X7XXXXX7X;X#XH.        ",
"        # > ; > q q v v N N N N N E %.%.%.%.! ! %.( ! T         "
};
