/* XPM */
static char *_4fccdf787b64e0bcedbcbbbbd27be71NyO6SYVxWKUkXlRJ[] = {
/* columns rows colors chars-per-pixel */
"32 32 116 2 ",
"   c None",
".  c #525E00",
"X  c #595D00",
"o  c #625F00",
"O  c #6F5900",
"+  c #7B5F00",
"@  c #576700",
"#  c #5D6700",
"$  c #5C6D00",
"%  c #646200",
"&  c #6E6500",
"*  c #666C00",
"=  c #6D6A00",
"-  c #736600",
";  c #7C6400",
":  c #756800",
">  c #7B6B00",
",  c #777000",
"<  c #7D7100",
"1  c #FF0100",
"2  c #FE0A00",
"3  c #F61300",
"4  c #FE1500",
"5  c #F71D00",
"6  c #FB1B00",
"7  c #FD2200",
"8  c #F22B00",
"9  c #FE2D00",
"0  c #FF3300",
"q  c #B14F00",
"w  c #AF5B00",
"e  c #B25500",
"r  c #BB5500",
"t  c #B35800",
"y  c #846500",
"u  c #8B6300",
"i  c #836E00",
"p  c #8C6B00",
"a  c #976E00",
"s  c #847100",
"d  c #897200",
"f  c #8C7800",
"g  c #937600",
"h  c #937900",
"j  c #BB6200",
"k  c #FE6700",
"l  c #FF6900",
"z  c #FE6B00",
"x  c #FA6D00",
"c  c #FF7400",
"v  c #AD8300",
"b  c #AF8500",
"n  c #B18500",
"m  c #B48700",
"M  c #B88A00",
"N  c #BD8B00",
"B  c #D79A00",
"V  c #DE9800",
"C  c #DE9900",
"Z  c #DF9900",
"A  c #D99C00",
"S  c #DA9C00",
"D  c #DC9D00",
"F  c #DC9E00",
"G  c #DD9E00",
"H  c #DE9E00",
"J  c #DE9F00",
"K  c #DF9F00",
"L  c #DCA000",
"P  c #DFA000",
"I  c #DFA100",
"U  c #F1A900",
"Y  c #F1AA00",
"T  c #F7AA00",
"R  c #F6AD00",
"E  c #F7AD00",
"W  c #F7AE00",
"Q  c #FFA900",
"!  c #FFAB00",
"~  c #F9AC00",
"^  c #F8AD00",
"/  c #F9AD00",
"(  c #F8AE00",
")  c #F9AE00",
"_  c #F9AF00",
"`  c #FAAF00",
"'  c #FEAC00",
"]  c #FEAD00",
"[  c #FFAF00",
"{  c #F6B000",
"}  c #FAB000",
"|  c #FBB000",
" . c #FCB000",
".. c #FDB000",
"X. c #FCB100",
"o. c #FDB100",
"O. c #FEB000",
"+. c #FFB000",
"@. c #FEB100",
"#. c #FFB100",
"$. c #FDB200",
"%. c #FDB300",
"&. c #FEB200",
"*. c #FFB200",
"=. c #FEB300",
"-. c #FFB300",
";. c #FDB400",
":. c #FFB400",
">. c #FFB500",
",. c #FFB600",
"<. c #FFB700",
"1. c #FFB800",
"2. c #FFBA00",
"3. c #FFBD00",
"4. c #FFC000",
"5. c #FFC100",
/* pixels */
"                1 1 1 1 1 1 1 1 1 1 1 1 1                       ",
"                1 1 1 1 1 2 2 2 2 2 2 1 1                       ",
"          1 1 1 1 1 1 1 1 1 1 1 1 1 1 1 1 1 1 1 1 1 1 1 1       ",
"          7 7 7 6 6 6 7 6 9 0 0 0 0 9 4 4 9 0 0 4 4 4 4 4       ",
"          ; ; ; y y y y O V *.' ' *.V + + V *.'                 ",
"          s f s : = : s : P <.*.*.<.P % % P 1.*.                ",
"      : % A *.U i o n *.) *.*.*.*.<.K % o K <.*.*.*.*.*.*.      ",
"      s % P 1.) d % m <.| *.*.*.*.<.K : : A *.) <.<.<.<.4.      ",
"      > % K 1.) > % - > & K <.*.*.*.*.) *.M - g *.<.<.<.<.*.*.*.",
"      > % B *.U g i s s : K <.*.*.*.*.) *.b X i U ) E ) E *.*.*.",
"      < : s d h U ) E ) E *.*.*.*.<.K : s : & - i i s d h       ",
"      : : - % > ) <.*.*.*.*.*.*.*.*.K & > i i i : : : & &       ",
"                *.<.*.<.<.<.<.<.<.<.*.*.*.*.<.<.*.4.)           ",
"                E | ) ! ! ) E E E E ) ) ) *.*.*.*.*.<.          ",
"          : : : d < j 0 0 j < d d d s s f                       ",
"          : s : - @ q 1 1 q # - - & - ; y                       ",
"      : : : : : > * t 1 1 t $ : : $ w 4 4 t * > : : : : :       ",
"      s : : : : ; * e 1 1 r ; u u ; r 1 1 t * > : : : : s       ",
"& & & & & - : : : $ e 1 1 2 5 5 5 5 2 1 1 e $ : : : - & - - & - ",
"d d s i s > : : y : r 7 9 4 1 1 1 1 4 9 7 r : y : : > s i s d d ",
") ) ) E *.v . ; 8 1 x *.*.l 1 4 4 1 l *.*.x 1 8 ; . v *.E ) ) ) ",
"*.*.*.*.<.N : a 7 1 l *.*.l 1 4 4 1 l *.*.l 1 7 a : N <.*.*.*.*.",
"*.*.*.*.*.) { T 0 1 7 0 0 6 1 1 1 1 6 0 0 7 1 0 T { ) *.*.*.*.*.",
"*.*.*.*.*.' *.! 0 1 1 1 1 1 1 1 1 1 1 1 1 1 1 0 ! *.' *.*.*.*.*.",
"1.1.1.<.3.c 1 0 2 1 2 4 4 2 1 1 1 1 2 4 4 2 1 2 0 1 c 3.<.1.1.1.",
"*.*.*.*.1.k 1 1 1 2 1 1 1 1 1 1 1 1 1 1 1 1 2 1 1 1 k 1.*.*.*.*.",
"          7 1 1 1 1 1 1 1             1 1 1 1 1 1 1 7           ",
"          3 6 6 6 6 4 1 1             1 1 4 6 6 6 6 3           ",
"      : : y y y y p u                     u p y y y y : :       ",
"      < : : = = = : =                     = , = = = : : <       ",
": : : : : : : : : > :                     : > : : : : : : : : : ",
": > : : : : : : : > :                     : > : : : : : : : > : "
};
