/* XPM */
static char *af7638b335f54b28aec876d6e3887460q2JZsKHLGySh4OCc[] = {
/* columns rows colors chars-per-pixel */
"32 32 134 2 ",
"   c None",
".  c #46271E",
"X  c #522A1C",
"o  c #5B4332",
"O  c #66442B",
"+  c #68482C",
"@  c #704826",
"#  c #724729",
"$  c #744C2E",
"%  c #784F2F",
"&  c #754E31",
"*  c #775232",
"=  c #7B5432",
"-  c #73543C",
";  c #7C563A",
":  c #7D5939",
">  c #94531F",
",  c #98561F",
"<  c #894E2C",
"1  c #935325",
"2  c #9D5925",
"3  c #92512A",
"4  c #99592B",
"5  c #875434",
"6  c #8F5736",
"7  c #825A39",
"8  c #97553A",
"9  c #925C38",
"0  c #9B5C3C",
"q  c #A35929",
"w  c #A25D3E",
"e  c #B05F35",
"r  c #9A603E",
"t  c #AD622D",
"y  c #B4632D",
"u  c #B8612E",
"i  c #B76130",
"p  c #B96430",
"a  c #B76C33",
"s  c #BF6932",
"d  c #BE7D3D",
"f  c #C16932",
"g  c #C66D3C",
"h  c #D47437",
"j  c #DA7537",
"k  c #D67937",
"l  c #D97937",
"z  c #D67638",
"x  c #D97638",
"c  c #D77A39",
"v  c #DC7C3A",
"b  c #E37E3C",
"n  c #A26541",
"m  c #A86542",
"M  c #A66A43",
"N  c #AD6D46",
"B  c #B1724A",
"V  c #B37D4C",
"C  c #BA7D4E",
"Z  c #D27B43",
"A  c #DE843E",
"S  c #E2813E",
"D  c #E6883F",
"F  c #B48152",
"G  c #B98250",
"H  c #B9845C",
"J  c #B1885F",
"K  c #BD8A59",
"L  c #B58D64",
"P  c #BA8E63",
"I  c #BE946A",
"U  c #C08242",
"Y  c #C88844",
"T  c #C8894D",
"R  c #D48044",
"E  c #DC8244",
"W  c #DF8843",
"Q  c #D88548",
"!  c #D38E4C",
"~  c #DD8B4C",
"^  c #D58650",
"/  c #D68851",
"(  c #DE8B53",
")  c #D29555",
"_  c #D2905F",
"`  c #D5995D",
"'  c #E28441",
"]  c #E38B44",
"[  c #EB8D44",
"{  c #E58B49",
"}  c #EA8E4A",
"|  c #EB9245",
" . c #E7924A",
".. c #EB954B",
"X. c #EC9A4D",
"o. c #F29545",
"O. c #F19A47",
"+. c #F29C4B",
"@. c #E39257",
"#. c #ED9D52",
"$. c #F59F50",
"%. c #EFA154",
"&. c #F2A254",
"*. c #F8A757",
"=. c #FCAA57",
"-. c #F1A659",
";. c #F8A758",
":. c #F5AB5D",
">. c #FDAE5C",
",. c #F9AB5B",
"<. c #C69160",
"1. c #CB976F",
"2. c #D69C62",
"3. c #DFA367",
"4. c #DCA469",
"5. c #DBA46C",
"6. c #F6AE60",
"7. c #F3AD6C",
"8. c #F2AC6D",
"9. c #F2AC6E",
"0. c #FCB363",
"q. c #F3B16B",
"w. c #F4B06B",
"e. c #F4B06C",
"r. c #E7A571",
"t. c #F6B771",
"y. c #F8BB72",
"u. c #F8BA73",
"i. c #FCB870",
"p. c #F9BB74",
"a. c #F9BC76",
"s. c #F9BD77",
"d. c #FEBC74",
"f. c #F9BF78",
/* pixels */
"                                                                ",
"                                                                ",
"                                                                ",
"                                                                ",
"                                                                ",
"                                                                ",
"                                                                ",
"              y.f.a.a.p.y.t.d.1.) i.q.e.w.9.9.9.r.              ",
"              :.0.:.:.:.:.:.>.C Y =.%.&.+.X...O.~               ",
"              :.6.:.:.:.:.-.,.B U *.#.#.#.X.....~               ",
"              &.:.-.-.-.&.%.;.B d &.X.X.........~               ",
"              X.&.&.%.&.#.#.&.N d $. ..... . .| Q               ",
"              7 : ; * @ * * = o + = * % # $ % = ;               ",
"              3.5.4.<.& ` 2.` ` ` ) ) T O T ! ! _               ",
"              O.+.+.@.M O.X.........| { 9 | [ [ E               ",
"              ]  .| / r ] ] ] ] ] ] ] R 5 A E A Z               ",
"              ]  .| ^ 0 ] ] ] ] ] W ] Z 5 A A A Z               ",
"              [ ..o.( n | | [ [ [ [ [ E 6 D ' D Z               ",
"              2 1 , < X > 1 1 4 4 1 1 < . 1 3 3 3               ",
"              I I L L P L J P - = K F F G V V C H               ",
"              ] ..} } { { ] } m a [ ' ' ' S S S Z               ",
"              l v v v v c k v 0 t v h z h h h h g               ",
"              c v v v v c c v 0 t v h z h h h h g               ",
"              l S v v v v c b w y b x x x j h j g               ",
"              f s s s s s s f 8 q f p p p p i u e               ",
"                                                                ",
"                                                                ",
"                                                                ",
"                                                                ",
"                                                                ",
"                                                                ",
"                                                                "
};
